<svg width="24" height="32" xmlns="http://www.w3.org/2000/svg"><g fill="#1875F0"><path d="M23.333 32H.667A.667.667 0 0 1 0 31.333V8.667c0-.178.07-.347.195-.472l8-8A.671.671 0 0 1 8.667 0h14.666c.368 0 .667.299.667.667v30.666a.667.667 0 0 1-.667.667zm-22-1.333h21.334V1.333H8.943l-7.61 7.61v21.724z"/><path d="M8.667 9.333h-8A.667.667 0 0 1 .667 8H8V.667a.667.667 0 0 1 1.333 0v8a.667.667 0 0 1-.666.666zm6.74 5.389c-.004-.012-.015-.02-.021-.031a.53.53 0 0 0-.064-.093c-.026-.033-.05-.065-.081-.091-.009-.007-.013-.018-.023-.025-.019-.014-.042-.018-.062-.03a.613.613 0 0 0-.116-.055c-.033-.01-.065-.014-.098-.02a.56.56 0 0 0-.123-.005c-.038.003-.072.013-.109.022-.026.007-.052.006-.078.017-.012.005-.019.015-.03.02-.034.017-.062.041-.093.065a.627.627 0 0 0-.09.08c-.008.009-.019.013-.026.023l-3.249 4.332-1.922-.96a.592.592 0 0 0-.793.264l-2.364 4.728c-.002.005-.002.011-.005.017-.016.036-.021.076-.03.116-.009.038-.022.075-.023.114-.003.005-.007.01-.007.017 0 .031.013.057.018.087.006.04.01.081.025.12.014.037.035.067.056.1.02.031.037.063.062.092.03.031.065.054.1.078.024.016.04.039.066.052.005.002.011 0 .017.003a.55.55 0 0 0 .247.06h11.818a.593.593 0 0 0 .544-.824l-3.546-8.273zm-7.86 7.914l1.672-3.343 1.836.917a.593.593 0 0 0 .737-.174l2.932-3.91 2.79 6.51H7.546zm1.998-5.909a2.366 2.366 0 0 0 2.364-2.363A2.366 2.366 0 0 0 9.545 12a2.366 2.366 0 0 0-2.363 2.364 2.366 2.366 0 0 0 2.363 2.363zm0-3.545a1.183 1.183 0 0 1 0 2.363 1.183 1.183 0 0 1 0-2.363z"/></g></svg>