<svg height="356" width="660" xmlns="http://www.w3.org/2000/svg" xmlns:xlink="http://www.w3.org/1999/xlink"><defs><path id="a" d="M0 0h660v356H0z"/><linearGradient id="c" x1="50%" x2="50%" y1="0%" y2="100%"><stop offset="0" stop-color="#fff" stop-opacity=".622"/><stop offset="1" stop-color="#fff" stop-opacity=".801"/></linearGradient><mask id="b" fill="#fff"><use fill-rule="evenodd" xlink:href="#a"/></mask></defs><g fill="none" fill-rule="evenodd"><use fill="#fff" xlink:href="#a"/><g fill="#00bc70" mask="url(#b)" opacity=".1"><path d="M315.636 172.765c-11.896-11.893-11.896-31.178 0-43.055 11.895-11.893 31.194-11.893 43.107 0 11.895 11.877 11.895 31.162 0 43.055-11.913 11.894-31.212 11.894-43.107 0M132.779-53l43.107 43.07L-6.981 172.765l-43.107-43.055z"/><path d="M-50.078 129.703c11.896-11.893 31.194-11.893 43.107 0 11.893 11.894 11.893 31.179 0 43.055-11.913 11.894-31.211 11.894-43.107 0-11.895-11.876-11.895-31.161 0-43.055M175.88-53c-11.896-11.891-31.195-11.891-43.108 0-11.895 11.893-11.895 31.178 0 43.057l21.553 21.535 21.554-21.535c11.896-11.88 11.896-31.164 0-43.057m-43.1 274.488l43.107-43.055 182.847 182.694-43.107 43.072z"/><path d="M315.636 404.19c-11.896-11.893-11.896-31.18 0-43.057 11.895-11.891 31.194-11.891 43.107 0 11.895 11.877 11.895 31.164 0 43.057-11.913 11.891-31.212 11.891-43.107 0M132.779 221.488c-11.896-11.893-11.896-31.178 0-43.055 11.895-11.893 31.194-11.893 43.107 0 11.895 11.877 11.895 31.162 0 43.055-11.913 11.891-31.212 11.891-43.107 0"/><path d="M132.779 178.425l43.107 43.055L-6.981 404.19l-43.107-43.055z"/><path d="M-50.078 361.127c11.896-11.891 31.194-11.891 43.107 0 11.893 11.893 11.893 31.162 0 43.057-11.913 11.891-31.211 11.891-43.107 0-11.895-11.895-11.895-31.164 0-43.057m182.857-182.702c11.895-11.894 31.194-11.894 43.107 0 11.895 11.893 11.895 31.178 0 43.055-11.913 11.893-31.212 11.893-43.107 0-11.896-11.877-11.896-31.162 0-43.055"/><path d="M175.88 178.425c-11.896-11.894-31.195-11.894-43.108 0-11.895 11.893-11.895 31.178 0 43.055l21.553 21.537 21.554-21.537c11.896-11.877 11.896-31.162 0-43.055m322.613 43.063l43.107-43.055 182.847 182.694-43.106 43.072z"/><path d="M498.492 221.488c-11.895-11.893-11.895-31.178 0-43.055 11.896-11.893 31.195-11.893 43.107 0 11.896 11.877 11.896 31.162 0 43.055-11.912 11.891-31.211 11.891-43.107 0"/><path d="M498.492 178.425L541.6 221.48 358.733 404.19l-43.107-43.055z"/><path d="M315.636 361.127c11.895-11.891 31.194-11.891 43.107 0 11.895 11.893 11.895 31.162 0 43.057-11.913 11.891-31.212 11.891-43.107 0-11.896-11.895-11.896-31.164 0-43.057"/><path d="M358.736 361.125L337.18 339.59l-21.552 21.535c-11.895 11.893-11.895 31.18 0 43.071 11.912 11.88 31.211 11.88 43.107 0 11.895-11.89 11.895-31.178 0-43.071m139.757-182.7c11.896-11.894 31.195-11.894 43.107 0 11.896 11.893 11.896 31.178 0 43.055-11.912 11.893-31.211 11.893-43.107 0-11.895-11.877-11.895-31.162 0-43.055"/><path d="M541.591 178.425c-11.895-11.894-31.194-11.894-43.106 0-11.896 11.893-11.896 31.178 0 43.055l21.554 21.537 21.552-21.537c11.896-11.877 11.896-31.162 0-43.055M132.779-9.936l43.107-43.072 182.847 182.71-43.107 43.056z"/></g><path d="M0 0h660v356H0z" fill="url(#c)"/></g></svg>